<svg xmlns="http://www.w3.org/2000/svg" xmlns:xlink="http://www.w3.org/1999/xlink" width="1080" height="1920" viewBox="0 0 1080 1920">
  <defs>
    <pattern id="pattern" preserveAspectRatio="none" width="100%" height="100%" viewBox="0 0 169 168">
      <image width="169" height="168" xlink:href="Home%20Screen%20Donor-image.png"/>
    </pattern>
    <filter id="SIRONA" x="346" y="166.787" width="388" height="148" filterUnits="userSpaceOnUse">
      <feOffset dy="10" input="SourceAlpha"/>
      <feGaussianBlur stdDeviation="3" result="blur"/>
      <feFlood flood-opacity="0.161"/>
      <feComposite operator="in" in2="blur"/>
      <feComposite in="SourceGraphic"/>
    </filter>
    <filter id="Save_Live" x="404" y="334" width="272" height="99" filterUnits="userSpaceOnUse">
      <feOffset dy="10" input="SourceAlpha"/>
      <feGaussianBlur stdDeviation="3" result="blur-2"/>
      <feFlood flood-opacity="0.161"/>
      <feComposite operator="in" in2="blur-2"/>
      <feComposite in="SourceGraphic"/>
    </filter>
    <pattern id="pattern-2" preserveAspectRatio="none" width="100%" height="100%" viewBox="0 0 520 261">
      <image width="520" height="261" xlink:href="Home%20Screen%20Donor-image5.png"/>
    </pattern>
    <filter id="Hands" x="307" y="1611.704" width="466.285" height="244.314" filterUnits="userSpaceOnUse">
      <feOffset dy="10" input="SourceAlpha"/>
      <feGaussianBlur stdDeviation="3" result="blur-3"/>
      <feFlood flood-opacity="0.161"/>
      <feComposite operator="in" in2="blur-3"/>
      <feComposite in="SourceGraphic"/>
    </filter>
    <clipPath id="clip-Home_Screen_Donor">
      <rect width="1080" height="1920"/>
    </clipPath>
  </defs>
  <g id="Home_Screen_Donor" data-name="Home Screen Donor" clip-path="url(#clip-Home_Screen_Donor)">
    <rect width="1080" height="1920" fill="#2bb673"/>
    <rect id="Heart" width="350" height="347.929" rx="32" transform="translate(691.292 564.344)" opacity="0.75" fill="url(#pattern)"/>
    <image id="Map" width="350" height="350" transform="translate(38.831 564)" opacity="0.75" xlink:href="Home%20Screen%20Donor-image2.png"/>
    <image id="First_Aid" data-name="First Aid" width="350" height="350" transform="translate(39.324 1205)" opacity="0.75" xlink:href="Home%20Screen%20Donor-image3.png"/>
    <image id="Blood" width="292.407" height="398" transform="translate(729 1142.627)" opacity="0.75" xlink:href="Home%20Screen%20Donor-image4.png"/>
    <g transform="matrix(1, 0, 0, 1, 0, 0)" filter="url(#SIRONA)">
      <text id="SIRONA-2" data-name="SIRONA" transform="translate(540 271.79)" fill="#fff" font-size="110" font-family="Cambria"><tspan x="-184.766" y="0">SIRONA</tspan></text>
    </g>
    <g transform="matrix(1, 0, 0, 1, 0, 0)" filter="url(#Save_Live)">
      <text id="Save_Live-2" data-name="Save | Live" transform="translate(540 389)" fill="#fff" font-size="80" font-family="Gabriola" text-decoration="underline"><tspan x="-126.631" y="0">Save | Live</tspan></text>
    </g>
    <image id="Logout_icon" data-name="Logout icon" width="148" height="148" transform="translate(932)" xlink:href="F:/App%20Contest/029_logout-512.png"/>
    <g transform="matrix(1, 0, 0, 1, 0, 0)" filter="url(#Hands)">
      <rect id="Hands-2" data-name="Hands" width="448.285" height="225.314" transform="translate(316 1611.7)" opacity="0.75" fill="url(#pattern-2)"/>
    </g>
    <g id="Subtraction_1" data-name="Subtraction 1" transform="translate(3990 711)" fill="#188b53">
      <path d="M -3022.564697265625 422.4998168945313 L -3877.435302734375 422.4998168945313 C -3877.2001953125 408.8866577148438 -3876.3173828125 395.1897277832031 -3874.807861328125 381.7490234375 C -3873.22802734375 367.6803588867188 -3870.922607421875 353.5466918945313 -3867.95556640625 339.740478515625 C -3865.027099609375 326.1132507324219 -3861.383056640625 312.4770202636719 -3857.125 299.210693359375 C -3852.91357421875 286.0902709960938 -3848.001708984375 273.0220336914063 -3842.5263671875 260.369140625 C -3831.68505859375 235.3160400390625 -3818.34130859375 211.1658172607422 -3802.865478515625 188.5893707275391 C -3787.529541015625 166.2164764404297 -3769.96337890625 145.1865844726563 -3750.654541015625 126.0840377807617 C -3731.34033203125 106.9759216308594 -3710.11865234375 89.63370513916016 -3687.57861328125 74.53914642333984 C -3664.8203125 59.29792404174805 -3640.51025390625 46.21003341674805 -3615.32373046875 35.63903427124023 C -3602.59765625 30.29770088195801 -3589.461669921875 25.52592277526855 -3576.2802734375 21.45636749267578 C -3562.951904296875 17.34147834777832 -3549.256103515625 13.84559059143066 -3535.57275390625 11.06558990478516 C -3521.712158203125 8.249589920043945 -3507.526611328125 6.100034713745117 -3493.409912109375 4.676368236541748 C -3479.086669921875 3.232257127761841 -3464.4814453125 2.500034809112549 -3450 2.500034809112549 C -3435.5185546875 2.500034809112549 -3420.913330078125 3.232257127761841 -3406.590087890625 4.676368236541748 C -3392.473876953125 6.099923610687256 -3378.2880859375 8.249589920043945 -3364.42724609375 11.06558990478516 C -3350.745849609375 13.84514617919922 -3337.0498046875 17.34103393554688 -3323.7197265625 21.45636749267578 C -3310.5380859375 25.52614593505859 -3297.40185546875 30.29781341552734 -3284.676513671875 35.63903427124023 C -3259.48974609375 46.21014404296875 -3235.179443359375 59.29803466796875 -3212.42138671875 74.53914642333984 C -3189.881591796875 89.63370513916016 -3168.65966796875 106.9759216308594 -3149.34521484375 126.0840377807617 C -3130.0361328125 145.187255859375 -3112.469970703125 166.2171478271484 -3097.134521484375 188.5893707275391 C -3081.65771484375 211.1676940917969 -3068.31396484375 235.3179168701172 -3057.4736328125 260.369140625 C -3051.997314453125 273.0245971679688 -3047.085693359375 286.0928039550781 -3042.875 299.210693359375 C -3038.616943359375 312.4770202636719 -3034.972900390625 326.1132507324219 -3032.04443359375 339.740478515625 C -3029.077880859375 353.5452575683594 -3026.772216796875 367.6790466308594 -3025.192138671875 381.7490234375 C -3023.6826171875 395.1897277832031 -3022.7998046875 408.8866577148438 -3022.564697265625 422.4998168945313 Z" stroke="none"/>
      <path d="M -3025.11572265625 419.9998168945313 C -3025.410400390625 407.3034362792969 -3026.26953125 394.5548706054688 -3027.676513671875 382.0280456542969 C -3029.24755859375 368.0403747558594 -3031.53955078125 353.9894714355469 -3034.48876953125 340.2657165527344 C -3037.39990234375 326.7186889648438 -3041.022216796875 313.1629333496094 -3045.25537109375 299.9748229980469 C -3049.441162109375 286.9341430664063 -3054.323974609375 273.9429321289063 -3059.76806640625 261.3619384765625 C -3070.544677734375 236.4577026367188 -3083.810546875 212.4490356445313 -3099.196533203125 190.0029296875 C -3114.442626953125 167.7609252929688 -3131.90673828125 146.8533630371094 -3151.103759765625 127.8612594604492 C -3170.3056640625 108.8642578125 -3191.404052734375 91.62303161621094 -3213.8125 76.61637115478516 C -3236.437255859375 61.4644775390625 -3260.60498046875 48.4532585144043 -3285.64404296875 37.94414520263672 C -3298.29443359375 32.63447952270508 -3311.35302734375 27.89092445373535 -3324.45703125 23.84514617919922 C -3337.708740234375 19.7540340423584 -3351.323974609375 16.27870178222656 -3364.9248046875 13.51547908782959 C -3378.70458984375 10.71603488922119 -3392.80712890625 8.579034805297852 -3406.8408203125 7.163812637329102 C -3421.0810546875 5.728034973144531 -3435.601806640625 5.000034809112549 -3450 5.000034809112549 C -3464.39794921875 5.000034809112549 -3478.9189453125 5.728034973144531 -3493.1591796875 7.163812637329102 C -3507.193115234375 8.579034805297852 -3521.2958984375 10.71603488922119 -3535.074951171875 13.51547908782959 C -3548.677734375 16.27914619445801 -3562.293212890625 19.75447845458984 -3575.542724609375 23.84503555297852 C -3588.646484375 27.89070129394531 -3601.705078125 32.63436889648438 -3614.356201171875 37.94425582885742 C -3639.394775390625 48.45314407348633 -3663.562255859375 61.4643669128418 -3686.1875 76.61637115478516 C -3708.59619140625 91.62303161621094 -3729.694580078125 108.8642578125 -3748.896240234375 127.8612594604492 C -3768.0927734375 146.8527069091797 -3785.556884765625 167.7601470947266 -3800.80322265625 190.0029296875 C -3816.1884765625 212.4472503662109 -3829.454345703125 236.4559173583984 -3840.23193359375 261.3620300292969 C -3845.675048828125 273.9403686523438 -3850.55810546875 286.9315795898438 -3854.744873046875 299.9747009277344 C -3858.977783203125 313.1629333496094 -3862.60009765625 326.7188110351563 -3865.511474609375 340.2657165527344 C -3868.4609375 353.9908142089844 -3870.752685546875 368.0416870117188 -3872.323486328125 382.0281372070313 C -3873.73046875 394.5548706054688 -3874.589599609375 407.3034362792969 -3874.88427734375 419.9998168945313 L -3025.11572265625 419.9998168945313 M -3020.028564453125 424.9998168945313 L -3879.971435546875 424.9998168945313 C -3879.80615234375 410.4680480957031 -3878.904296875 395.8228149414063 -3877.292236328125 381.4700317382813 C -3875.703125 367.3192443847656 -3873.38427734375 353.1026916503906 -3870.39990234375 339.2152709960938 C -3867.4541015625 325.5082702636719 -3863.788818359375 311.7916870117188 -3859.505615234375 298.4467163085938 C -3855.26904296875 285.2485961914063 -3850.328369140625 272.1034851074219 -3844.82080078125 259.3762512207031 C -3833.91650390625 234.1774749755859 -3820.49462890625 209.8856964111328 -3804.927490234375 187.1759185791016 C -3789.50244140625 164.6728057861328 -3771.833984375 143.5205841064453 -3752.412841796875 124.3068161010742 C -3732.986572265625 105.0876998901367 -3711.641357421875 87.64459228515625 -3688.9697265625 72.46192169189453 C -3666.078369140625 57.131591796875 -3641.6259765625 43.96703338623047 -3616.291259765625 33.33381271362305 C -3603.489501953125 27.96070098876953 -3590.27587890625 23.16092300415039 -3577.017822265625 19.06759071350098 C -3563.61083984375 14.92847919464111 -3549.834228515625 11.4119234085083 -3536.070556640625 8.61559009552002 C -3522.128662109375 5.783145904541016 -3507.85986328125 3.620923757553101 -3493.660888671875 2.189034700393677 C -3479.254150390625 0.7364792823791504 -3464.564697265625 3.481716703390703e-05 -3450 3.481716703390703e-05 C -3435.435302734375 3.481716703390703e-05 -3420.745849609375 0.7364792823791504 -3406.33935546875 2.189034700393677 C -3392.139892578125 3.620923757553101 -3377.871337890625 5.783145904541016 -3363.929443359375 8.61559009552002 C -3350.16650390625 11.41170120239258 -3336.389892578125 14.92836856842041 -3322.982177734375 19.06759071350098 C -3309.72314453125 23.16125679016113 -3296.509765625 27.96103477478027 -3283.708984375 33.33381271362305 C -3258.375 43.96670150756836 -3233.922119140625 57.13125610351563 -3211.0302734375 72.46192169189453 C -3188.35888671875 87.64459228515625 -3167.013671875 105.0876998901367 -3147.587158203125 124.3068161010742 C -3128.166259765625 143.5205841064453 -3110.49755859375 164.6728057861328 -3095.072509765625 187.1759185791016 C -3079.5048828125 209.8868103027344 -3066.0830078125 234.1784820556641 -3055.17919921875 259.3762512207031 C -3049.6708984375 272.105712890625 -3044.730224609375 285.2509155273438 -3040.49462890625 298.4467163085938 C -3036.211181640625 311.7916870117188 -3032.5458984375 325.5082702636719 -3029.600341796875 339.2152709960938 C -3026.615966796875 353.1020202636719 -3024.297119140625 367.318603515625 -3022.707763671875 381.4700317382813 C -3021.09521484375 395.8272705078125 -3020.19384765625 410.4728088378906 -3020.028564453125 424.9998168945313 Z" stroke="none" fill="#fff"/>
    </g>
    <g id="Subtraction_2" data-name="Subtraction 2" transform="translate(-2910 1567) rotate(180)" fill="#188b53">
      <path d="M -3022.564697265625 422.4998168945313 L -3877.435302734375 422.4998168945313 C -3877.2001953125 408.8866577148438 -3876.3173828125 395.1897277832031 -3874.807861328125 381.7490234375 C -3873.22802734375 367.6803588867188 -3870.922607421875 353.5466918945313 -3867.95556640625 339.740478515625 C -3865.027099609375 326.1132507324219 -3861.383056640625 312.4770202636719 -3857.125 299.210693359375 C -3852.91357421875 286.0902709960938 -3848.001708984375 273.0220336914063 -3842.5263671875 260.369140625 C -3831.68505859375 235.3160400390625 -3818.34130859375 211.1658172607422 -3802.865478515625 188.5893707275391 C -3787.529541015625 166.2164764404297 -3769.96337890625 145.1865844726563 -3750.654541015625 126.0840377807617 C -3731.34033203125 106.9759216308594 -3710.11865234375 89.63370513916016 -3687.57861328125 74.53914642333984 C -3664.8203125 59.29792404174805 -3640.51025390625 46.21003341674805 -3615.32373046875 35.63903427124023 C -3602.59765625 30.29770088195801 -3589.461669921875 25.52592277526855 -3576.2802734375 21.45636749267578 C -3562.951904296875 17.34147834777832 -3549.256103515625 13.84559059143066 -3535.57275390625 11.06558990478516 C -3521.712158203125 8.249589920043945 -3507.526611328125 6.100034713745117 -3493.409912109375 4.676368236541748 C -3479.086669921875 3.232257127761841 -3464.4814453125 2.500034809112549 -3450 2.500034809112549 C -3435.5185546875 2.500034809112549 -3420.913330078125 3.232257127761841 -3406.590087890625 4.676368236541748 C -3392.473876953125 6.099923610687256 -3378.2880859375 8.249589920043945 -3364.42724609375 11.06558990478516 C -3350.745849609375 13.84514617919922 -3337.0498046875 17.34103393554688 -3323.7197265625 21.45636749267578 C -3310.5380859375 25.52614593505859 -3297.40185546875 30.29781341552734 -3284.676513671875 35.63903427124023 C -3259.48974609375 46.21014404296875 -3235.179443359375 59.29803466796875 -3212.42138671875 74.53914642333984 C -3189.881591796875 89.63370513916016 -3168.65966796875 106.9759216308594 -3149.34521484375 126.0840377807617 C -3130.0361328125 145.187255859375 -3112.469970703125 166.2171478271484 -3097.134521484375 188.5893707275391 C -3081.65771484375 211.1676940917969 -3068.31396484375 235.3179168701172 -3057.4736328125 260.369140625 C -3051.997314453125 273.0245971679688 -3047.085693359375 286.0928039550781 -3042.875 299.210693359375 C -3038.616943359375 312.4770202636719 -3034.972900390625 326.1132507324219 -3032.04443359375 339.740478515625 C -3029.077880859375 353.5452575683594 -3026.772216796875 367.6790466308594 -3025.192138671875 381.7490234375 C -3023.6826171875 395.1897277832031 -3022.7998046875 408.8866577148438 -3022.564697265625 422.4998168945313 Z" stroke="none"/>
      <path d="M -3025.11572265625 419.9998168945313 C -3025.410400390625 407.3034362792969 -3026.26953125 394.5548706054688 -3027.676513671875 382.0280456542969 C -3029.24755859375 368.0403747558594 -3031.53955078125 353.9894714355469 -3034.48876953125 340.2657165527344 C -3037.39990234375 326.7186889648438 -3041.022216796875 313.1629333496094 -3045.25537109375 299.9748229980469 C -3049.441162109375 286.9341430664063 -3054.323974609375 273.9429321289063 -3059.76806640625 261.3619384765625 C -3070.544677734375 236.4577026367188 -3083.810546875 212.4490356445313 -3099.196533203125 190.0029296875 C -3114.442626953125 167.7609252929688 -3131.90673828125 146.8533630371094 -3151.103759765625 127.8612594604492 C -3170.3056640625 108.8642578125 -3191.404052734375 91.62303161621094 -3213.8125 76.61637115478516 C -3236.437255859375 61.4644775390625 -3260.60498046875 48.4532585144043 -3285.64404296875 37.94414520263672 C -3298.29443359375 32.63447952270508 -3311.35302734375 27.89092445373535 -3324.45703125 23.84514617919922 C -3337.708740234375 19.7540340423584 -3351.323974609375 16.27870178222656 -3364.9248046875 13.51547908782959 C -3378.70458984375 10.71603488922119 -3392.80712890625 8.579034805297852 -3406.8408203125 7.163812637329102 C -3421.0810546875 5.728034973144531 -3435.601806640625 5.000034809112549 -3450 5.000034809112549 C -3464.39794921875 5.000034809112549 -3478.9189453125 5.728034973144531 -3493.1591796875 7.163812637329102 C -3507.193115234375 8.579034805297852 -3521.2958984375 10.71603488922119 -3535.074951171875 13.51547908782959 C -3548.677734375 16.27914619445801 -3562.293212890625 19.75447845458984 -3575.542724609375 23.84503555297852 C -3588.646484375 27.89070129394531 -3601.705078125 32.63436889648438 -3614.356201171875 37.94425582885742 C -3639.394775390625 48.45314407348633 -3663.562255859375 61.4643669128418 -3686.1875 76.61637115478516 C -3708.59619140625 91.62303161621094 -3729.694580078125 108.8642578125 -3748.896240234375 127.8612594604492 C -3768.0927734375 146.8527069091797 -3785.556884765625 167.7601470947266 -3800.80322265625 190.0029296875 C -3816.1884765625 212.4472503662109 -3829.454345703125 236.4559173583984 -3840.23193359375 261.3620300292969 C -3845.675048828125 273.9403686523438 -3850.55810546875 286.9315795898438 -3854.744873046875 299.9747009277344 C -3858.977783203125 313.1629333496094 -3862.60009765625 326.7188110351563 -3865.511474609375 340.2657165527344 C -3868.4609375 353.9908142089844 -3870.752685546875 368.0416870117188 -3872.323486328125 382.0281372070313 C -3873.73046875 394.5548706054688 -3874.589599609375 407.3034362792969 -3874.88427734375 419.9998168945313 L -3025.11572265625 419.9998168945313 M -3020.028564453125 424.9998168945313 L -3879.971435546875 424.9998168945313 C -3879.80615234375 410.4680480957031 -3878.904296875 395.8228149414063 -3877.292236328125 381.4700317382813 C -3875.703125 367.3192443847656 -3873.38427734375 353.1026916503906 -3870.39990234375 339.2152709960938 C -3867.4541015625 325.5082702636719 -3863.788818359375 311.7916870117188 -3859.505615234375 298.4467163085938 C -3855.26904296875 285.2485961914063 -3850.328369140625 272.1034851074219 -3844.82080078125 259.3762512207031 C -3833.91650390625 234.1774749755859 -3820.49462890625 209.8856964111328 -3804.927490234375 187.1759185791016 C -3789.50244140625 164.6728057861328 -3771.833984375 143.5205841064453 -3752.412841796875 124.3068161010742 C -3732.986572265625 105.0876998901367 -3711.641357421875 87.64459228515625 -3688.9697265625 72.46192169189453 C -3666.078369140625 57.131591796875 -3641.6259765625 43.96703338623047 -3616.291259765625 33.33381271362305 C -3603.489501953125 27.96070098876953 -3590.27587890625 23.16092300415039 -3577.017822265625 19.06759071350098 C -3563.61083984375 14.92847919464111 -3549.834228515625 11.4119234085083 -3536.070556640625 8.61559009552002 C -3522.128662109375 5.783145904541016 -3507.85986328125 3.620923757553101 -3493.660888671875 2.189034700393677 C -3479.254150390625 0.7364792823791504 -3464.564697265625 3.481716703390703e-05 -3450 3.481716703390703e-05 C -3435.435302734375 3.481716703390703e-05 -3420.745849609375 0.7364792823791504 -3406.33935546875 2.189034700393677 C -3392.139892578125 3.620923757553101 -3377.871337890625 5.783145904541016 -3363.929443359375 8.61559009552002 C -3350.16650390625 11.41170120239258 -3336.389892578125 14.92836856842041 -3322.982177734375 19.06759071350098 C -3309.72314453125 23.16125679016113 -3296.509765625 27.96103477478027 -3283.708984375 33.33381271362305 C -3258.375 43.96670150756836 -3233.922119140625 57.13125610351563 -3211.0302734375 72.46192169189453 C -3188.35888671875 87.64459228515625 -3167.013671875 105.0876998901367 -3147.587158203125 124.3068161010742 C -3128.166259765625 143.5205841064453 -3110.49755859375 164.6728057861328 -3095.072509765625 187.1759185791016 C -3079.5048828125 209.8868103027344 -3066.0830078125 234.1784820556641 -3055.17919921875 259.3762512207031 C -3049.6708984375 272.105712890625 -3044.730224609375 285.2509155273438 -3040.49462890625 298.4467163085938 C -3036.211181640625 311.7916870117188 -3032.5458984375 325.5082702636719 -3029.600341796875 339.2152709960938 C -3026.615966796875 353.1020202636719 -3024.297119140625 367.318603515625 -3022.707763671875 381.4700317382813 C -3021.09521484375 395.8272705078125 -3020.19384765625 410.4728088378906 -3020.028564453125 424.9998168945313 Z" stroke="none" fill="#fff"/>
    </g>
    <text id="Donor_Profile" data-name="Donor Profile" transform="translate(540 1007)" fill="#fff" font-size="100" font-family="Cambria"><tspan x="-287.622" y="0">Donor Profile</tspan></text>
    <text id="Donation_History" data-name="Donation History" transform="translate(540 1332)" fill="#fff" font-size="100" font-family="Cambria"><tspan x="-366.797" y="0">Donation History</tspan></text>
  </g>
</svg>
